<svg width="328" height="328" viewBox="0 0 328 328" fill="none" xmlns="http://www.w3.org/2000/svg">
<g clip-path="url(#clip0_1_549)" filter="url(#filter0_d_1_549)">
<path d="M164 239C218.676 239 263 194.676 263 140C263 85.3238 218.676 41 164 41C109.324 41 65 85.3238 65 140C65 194.676 109.324 239 164 239Z" fill="white"/>
<g filter="url(#filter1_i_1_549)">
<path d="M151.484 115.647C146.264 112.576 139.683 116.34 139.683 122.396V159.215C139.683 165.271 146.263 169.035 151.484 165.965L182.778 147.557C187.926 144.53 187.926 137.086 182.779 134.058L151.484 115.647Z" fill="#FF0000" fill-opacity="0.01"/>
</g>
<path d="M148.165 109.714C142.944 106.643 136.363 110.406 136.363 116.463V163.538C136.363 169.595 142.944 173.359 148.164 170.288L188.176 146.753C193.324 143.725 193.324 136.282 188.177 133.254L148.165 109.714Z" fill="#0075FF"/>
</g>
<defs>
<filter id="filter0_d_1_549" x="0" y="0" width="328" height="328" filterUnits="userSpaceOnUse" color-interpolation-filters="sRGB">
<feFlood flood-opacity="0" result="BackgroundImageFix"/>
<feColorMatrix in="SourceAlpha" type="matrix" values="0 0 0 0 0 0 0 0 0 0 0 0 0 0 0 0 0 0 127 0" result="hardAlpha"/>
<feOffset dy="24"/>
<feGaussianBlur stdDeviation="32.5"/>
<feColorMatrix type="matrix" values="0 0 0 0 0.0784314 0 0 0 0 0.0784314 0 0 0 0 0.168627 0 0 0 0.16 0"/>
<feBlend mode="normal" in2="BackgroundImageFix" result="effect1_dropShadow_1_549"/>
<feBlend mode="normal" in="SourceGraphic" in2="effect1_dropShadow_1_549" result="shape"/>
</filter>
<filter id="filter1_i_1_549" x="139.683" y="114.554" width="46.9564" height="62.5039" filterUnits="userSpaceOnUse" color-interpolation-filters="sRGB">
<feFlood flood-opacity="0" result="BackgroundImageFix"/>
<feBlend mode="normal" in="SourceGraphic" in2="BackgroundImageFix" result="shape"/>
<feColorMatrix in="SourceAlpha" type="matrix" values="0 0 0 0 0 0 0 0 0 0 0 0 0 0 0 0 0 0 127 0" result="hardAlpha"/>
<feOffset dy="10"/>
<feGaussianBlur stdDeviation="14"/>
<feComposite in2="hardAlpha" operator="arithmetic" k2="-1" k3="1"/>
<feColorMatrix type="matrix" values="0 0 0 0 0 0 0 0 0 0.46 0 0 0 0 1 0 0 0 0.26 0"/>
<feBlend mode="normal" in2="shape" result="effect1_innerShadow_1_549"/>
</filter>
<clipPath id="clip0_1_549">
<rect width="198" height="198" fill="white" transform="translate(65 41)"/>
</clipPath>
</defs>
</svg>
