<svg width="72" height="72" viewBox="0 0 72 72" fill="none" xmlns="http://www.w3.org/2000/svg">
<g clip-path="url(#clip0_1_305)">
<path d="M36 71.5C55.6061 71.5 71.5 55.6061 71.5 36C71.5 16.3939 55.6061 0.5 36 0.5C16.3939 0.5 0.5 16.3939 0.5 36C0.5 55.6061 16.3939 71.5 36 71.5Z" fill="white" stroke="#DCDDEB"/>
<path d="M35.6016 55.2031C46.4272 55.2031 55.2031 46.4272 55.2031 35.6016C55.2031 24.7759 46.4272 16 35.6016 16C24.7759 16 16 24.7759 16 35.6016C16 46.4272 24.7759 55.2031 35.6016 55.2031Z" fill="#0075FF"/>
<path d="M33.6414 43.4423C33.1396 43.4423 32.6378 43.2502 32.2556 42.868L26.3751 36.9875C25.6087 36.2211 25.6087 34.9823 26.3751 34.2158C27.1415 33.4494 28.3803 33.4494 29.1468 34.2158L33.6414 38.7105L42.0564 30.2955C42.8228 29.5291 44.0616 29.5291 44.828 30.2955C45.5944 31.0619 45.5944 32.3008 44.828 33.0672L35.0272 42.868C34.645 43.2502 34.1432 43.4423 33.6414 43.4423Z" fill="#EDF5FF"/>
</g>
<defs>
<clipPath id="clip0_1_305">
<path d="M0 7C0 3.13401 3.13401 0 7 0H65C68.866 0 72 3.13401 72 7V65C72 68.866 68.866 72 65 72H7C3.13401 72 0 68.866 0 65V7Z" fill="white"/>
</clipPath>
</defs>
</svg>
