<svg width="72" height="72" viewBox="0 0 72 72" fill="none" xmlns="http://www.w3.org/2000/svg">
<g clip-path="url(#clip0_1_313)">
<path d="M36 71.5C55.6061 71.5 71.5 55.6061 71.5 36C71.5 16.3939 55.6061 0.5 36 0.5C16.3939 0.5 0.5 16.3939 0.5 36C0.5 55.6061 16.3939 71.5 36 71.5Z" fill="white" stroke="#DCDDEB"/>
<path d="M43.206 38.5879H28.7943C24.8146 38.5879 21.5884 41.8141 21.5884 45.7938C21.5884 49.7735 24.8146 52.9997 28.7943 52.9997H43.206C47.1857 52.9997 50.4119 49.7735 50.4119 45.7938C50.4119 41.8141 47.1857 38.5879 43.206 38.5879Z" fill="#123578"/>
<path d="M35.9999 34.4706C40.5482 34.4706 44.2352 30.7835 44.2352 26.2353C44.2352 21.6871 40.5482 18 35.9999 18C31.4517 18 27.7646 21.6871 27.7646 26.2353C27.7646 30.7835 31.4517 34.4706 35.9999 34.4706Z" fill="#0075FF"/>
</g>
<defs>
<clipPath id="clip0_1_313">
<path d="M0 7C0 3.13401 3.13401 0 7 0H65C68.866 0 72 3.13401 72 7V65C72 68.866 68.866 72 65 72H7C3.13401 72 0 68.866 0 65V7Z" fill="white"/>
</clipPath>
</defs>
</svg>
